<svg width="26" height="15" viewBox="0 0 26 15" fill="none" xmlns="http://www.w3.org/2000/svg">
<path d="M8.51545 6.32812H6.64897C6.61488 6.08665 6.54528 5.87216 6.44016 5.68466C6.33505 5.49432 6.20011 5.33239 6.03533 5.19886C5.87056 5.06534 5.68022 4.96307 5.46431 4.89205C5.25124 4.82102 5.01971 4.78551 4.76971 4.78551C4.318 4.78551 3.92454 4.89773 3.58931 5.12216C3.25408 5.34375 2.99414 5.66761 2.80948 6.09375C2.62482 6.51705 2.53249 7.03125 2.53249 7.63636C2.53249 8.25852 2.62482 8.78125 2.80948 9.20455C2.99698 9.62784 3.25835 9.94744 3.59357 10.1634C3.9288 10.3793 4.31658 10.4872 4.75692 10.4872C5.00408 10.4872 5.23278 10.4545 5.443 10.3892C5.65607 10.3239 5.84499 10.2287 6.00977 10.1037C6.17454 9.97585 6.3109 9.82102 6.41886 9.6392C6.52965 9.45739 6.60636 9.25 6.64897 9.01705L8.51545 9.02557C8.46715 9.42614 8.34641 9.8125 8.15323 10.1847C7.96289 10.554 7.70579 10.8849 7.38193 11.1776C7.0609 11.4673 6.67738 11.6974 6.23136 11.8679C5.78817 12.0355 5.28675 12.1193 4.7271 12.1193C3.94869 12.1193 3.25266 11.9432 2.63903 11.5909C2.02823 11.2386 1.54528 10.7287 1.19016 10.0611C0.837891 9.39347 0.661754 8.58523 0.661754 7.63636C0.661754 6.68466 0.840732 5.875 1.19869 5.20739C1.55664 4.53977 2.04244 4.03125 2.65607 3.68182C3.26971 3.32955 3.96005 3.15341 4.7271 3.15341C5.23278 3.15341 5.70153 3.22443 6.13335 3.36648C6.568 3.50852 6.95295 3.71591 7.28818 3.98864C7.6234 4.25852 7.89613 4.58949 8.10636 4.98153C8.31942 5.37358 8.45579 5.82244 8.51545 6.32812ZM11.671 12.1236C11.2534 12.1236 10.8812 12.0511 10.5545 11.9062C10.2278 11.7585 9.96928 11.5412 9.77894 11.2543C9.59144 10.9645 9.49769 10.6037 9.49769 10.1719C9.49769 9.80824 9.56445 9.50284 9.69798 9.25568C9.8315 9.00852 10.0133 8.80966 10.2434 8.65909C10.4735 8.50852 10.7349 8.39489 11.0275 8.31818C11.323 8.24148 11.6326 8.1875 11.9565 8.15625C12.3372 8.11648 12.644 8.07955 12.877 8.04545C13.1099 8.00852 13.2789 7.95455 13.3841 7.88352C13.4892 7.8125 13.5417 7.70739 13.5417 7.56818V7.54261C13.5417 7.27273 13.4565 7.06392 13.286 6.91619C13.1184 6.76847 12.8798 6.6946 12.5701 6.6946C12.2434 6.6946 11.9835 6.76705 11.7903 6.91193C11.5971 7.05398 11.4693 7.23295 11.4068 7.44886L9.72781 7.3125C9.81303 6.91477 9.98065 6.57102 10.2306 6.28125C10.4806 5.98864 10.8031 5.7642 11.198 5.60795C11.5957 5.44886 12.0559 5.36932 12.5787 5.36932C12.9423 5.36932 13.2903 5.41193 13.6227 5.49716C13.9579 5.58239 14.2548 5.71449 14.5133 5.89347C14.7747 6.07244 14.9806 6.30256 15.1312 6.58381C15.2818 6.86222 15.3571 7.19602 15.3571 7.58523V12H13.6355V11.0923H13.5843C13.4792 11.2969 13.3386 11.4773 13.1625 11.6335C12.9863 11.7869 12.7747 11.9077 12.5275 11.9957C12.2804 12.081 11.9949 12.1236 11.671 12.1236ZM12.1909 10.8707C12.4579 10.8707 12.6937 10.8182 12.8983 10.7131C13.1028 10.6051 13.2633 10.4602 13.3798 10.2784C13.4963 10.0966 13.5545 9.89062 13.5545 9.66051V8.96591C13.4977 9.00284 13.4196 9.03693 13.3201 9.06818C13.2235 9.09659 13.1142 9.12358 12.992 9.14915C12.8699 9.17187 12.7477 9.19318 12.6255 9.21307C12.5034 9.23011 12.3926 9.24574 12.2931 9.25994C12.0801 9.29119 11.894 9.34091 11.7349 9.40909C11.5758 9.47727 11.4522 9.5696 11.3642 9.68608C11.2761 9.79972 11.2321 9.94176 11.2321 10.1122C11.2321 10.3594 11.3216 10.5483 11.5005 10.679C11.6824 10.8068 11.9125 10.8707 12.1909 10.8707ZM16.7654 12V5.45455H18.5254V6.59659H18.5936C18.7129 6.19034 18.9132 5.88352 19.1944 5.67614C19.4757 5.46591 19.7995 5.3608 20.166 5.3608C20.2569 5.3608 20.3549 5.36648 20.46 5.37784C20.5652 5.3892 20.6575 5.40483 20.737 5.42472V7.03551C20.6518 7.00994 20.5339 6.98722 20.3833 6.96733C20.2328 6.94744 20.095 6.9375 19.97 6.9375C19.7029 6.9375 19.4643 6.99574 19.2541 7.11222C19.0467 7.22585 18.8819 7.38494 18.7598 7.58949C18.6404 7.79403 18.5808 8.02983 18.5808 8.29688V12H16.7654ZM25.4853 5.45455V6.81818H21.5435V5.45455H25.4853ZM22.4384 3.88636H24.2537V9.98864C24.2537 10.1562 24.2793 10.2869 24.3304 10.3807C24.3816 10.4716 24.4526 10.5355 24.5435 10.5724C24.6373 10.6094 24.7452 10.6278 24.8674 10.6278C24.9526 10.6278 25.0378 10.6207 25.123 10.6065C25.2083 10.5895 25.2736 10.5767 25.3191 10.5682L25.6046 11.919C25.5137 11.9474 25.3858 11.9801 25.2211 12.017C25.0563 12.0568 24.856 12.081 24.6202 12.0895C24.1827 12.1065 23.7992 12.0483 23.4696 11.9148C23.1429 11.7812 22.8887 11.5739 22.7069 11.2926C22.525 11.0114 22.4355 10.6562 22.4384 10.2273V3.88636Z" fill="black"/>
</svg>
