<svg width="34" height="15" viewBox="0 0 34 15" fill="none" xmlns="http://www.w3.org/2000/svg">
<path d="M1.21751 3.27273H3.49308L5.89648 9.13636H5.99876L8.40217 3.27273H10.6777V12H8.88796V6.3196H8.81552L6.557 11.9574H5.33825L3.07972 6.2983H3.00728V12H1.21751V3.27273ZM15.1468 12.1278C14.4735 12.1278 13.894 11.9915 13.4082 11.7188C12.9252 11.4432 12.5531 11.054 12.2917 10.5511C12.0304 10.0455 11.8997 9.44744 11.8997 8.7571C11.8997 8.08381 12.0304 7.4929 12.2917 6.98438C12.5531 6.47585 12.921 6.07955 13.3954 5.79545C13.8727 5.51136 14.4324 5.36932 15.0744 5.36932C15.5062 5.36932 15.9082 5.43892 16.2804 5.57812C16.6554 5.71449 16.9821 5.92045 17.2605 6.19602C17.5417 6.47159 17.7605 6.81818 17.9167 7.2358C18.073 7.65057 18.1511 8.13636 18.1511 8.69318V9.19176H12.6241V8.06676H16.4423C16.4423 7.8054 16.3855 7.57386 16.2718 7.37216C16.1582 7.17045 16.0005 7.01278 15.7988 6.89915C15.6 6.78267 15.3684 6.72443 15.1042 6.72443C14.8287 6.72443 14.5843 6.78835 14.3713 6.91619C14.161 7.04119 13.9963 7.21023 13.877 7.4233C13.7576 7.63352 13.6966 7.8679 13.6937 8.12642V9.19602C13.6937 9.51989 13.7534 9.79972 13.8727 10.0355C13.9949 10.2713 14.1667 10.4531 14.3883 10.581C14.6099 10.7088 14.8727 10.7727 15.1767 10.7727C15.3784 10.7727 15.563 10.7443 15.7306 10.6875C15.8983 10.6307 16.0417 10.5455 16.161 10.4318C16.2804 10.3182 16.3713 10.179 16.4338 10.0142L18.1127 10.125C18.0275 10.5284 17.8528 10.8807 17.5886 11.1818C17.3272 11.4801 16.9892 11.7131 16.5744 11.8807C16.1625 12.0455 15.6866 12.1278 15.1468 12.1278ZM21.1511 8.21591V12H19.3358V5.45455H21.0659V6.60938H21.1426C21.2875 6.22869 21.5304 5.92756 21.8713 5.70597C22.2122 5.48153 22.6255 5.36932 23.1113 5.36932C23.5659 5.36932 23.9622 5.46875 24.3002 5.66761C24.6383 5.86648 24.9011 6.15057 25.0886 6.51989C25.2761 6.88636 25.3699 7.32386 25.3699 7.83239V12H23.5545V8.15625C23.5574 7.75568 23.4551 7.44318 23.2477 7.21875C23.0403 6.99148 22.7548 6.87784 22.3912 6.87784C22.1468 6.87784 21.9309 6.9304 21.7434 7.03551C21.5588 7.14062 21.4139 7.29403 21.3088 7.49574C21.2065 7.6946 21.1539 7.93466 21.1511 8.21591ZM30.998 9.21307V5.45455H32.8134V12H31.0705V10.8111H31.0023C30.8546 11.1946 30.6088 11.5028 30.2651 11.7358C29.9242 11.9687 29.508 12.0852 29.0165 12.0852C28.579 12.0852 28.1941 11.9858 27.8617 11.7869C27.5293 11.5881 27.2694 11.3054 27.0819 10.9389C26.8972 10.5724 26.8034 10.1335 26.8006 9.62216V5.45455H28.6159V9.2983C28.6188 9.68466 28.7225 9.99006 28.927 10.2145C29.1316 10.4389 29.4057 10.5511 29.7495 10.5511C29.9682 10.5511 30.1728 10.5014 30.3631 10.402C30.5534 10.2997 30.7069 10.1491 30.8233 9.95028C30.9426 9.75142 31.0009 9.50568 30.998 9.21307Z" fill="black"/>
</svg>
